<svg width="271" height="235" viewBox="0 0 271 235" fill="none" xmlns="http://www.w3.org/2000/svg">
<rect x="35" y="17" width="200" height="200" rx="31" fill="white"/>
<rect x="62.2222" y="41.7531" width="145.029" height="151.111" rx="19" stroke="#367AFF" stroke-width="10"/>
<path d="M110.967 146.309C108.689 146.309 107.549 145.088 107.549 142.647V79.9512C107.549 77.5098 108.689 76.2891 110.967 76.2891H133.575C143.633 76.2891 150.974 77.8516 155.596 80.9766C160.219 84.0691 162.53 89.1146 162.53 96.1133C162.53 101.322 160.658 105.472 156.915 108.565C153.171 111.657 148.418 113.708 142.657 114.717V114.815C145.782 115.986 148.142 117.614 149.737 119.697C151.332 121.781 152.634 123.604 153.643 125.166L164.385 142.109C166.176 144.909 165.557 146.309 162.53 146.309H154.034C152.243 146.309 150.778 145.348 149.639 143.428L139.776 126.973C138.702 125.215 136.732 123.294 133.868 121.211C131.036 119.095 128.22 118.037 125.42 118.037H121.807V142.647C121.807 145.088 120.668 146.309 118.389 146.309H110.967ZM121.807 105.928H130.547C137.058 105.928 141.68 105.195 144.415 103.731C147.181 102.233 148.565 99.8731 148.565 96.6504C148.565 93.1348 147.23 90.8562 144.561 89.8145C141.924 88.7403 138.034 88.2032 132.891 88.2032H121.807V105.928Z" fill="#367AFF"/>
</svg>
