<svg width="162" height="162" viewBox="0 0 162 162" fill="none" xmlns="http://www.w3.org/2000/svg">
<rect width="162" height="162" rx="31" fill="#F14A61"/>
<path d="M73.082 43.6426C73.0169 41.2012 74.1562 39.9805 76.5 39.9805H84.3125C86.6562 39.9805 87.7956 41.2012 87.7305 43.6426L86.4121 86.3184C86.347 88.4342 85.2891 89.4922 83.2383 89.4922H77.5742C75.5234 89.4922 74.4655 88.4342 74.4004 86.3184L73.082 43.6426ZM76.6953 110C74.4167 110 73.2773 108.779 73.2773 106.338V99.7949C73.2773 97.3535 74.4167 96.1328 76.6953 96.1328H84.1172C86.3958 96.1328 87.5352 97.3535 87.5352 99.7949V106.338C87.5352 108.779 86.3958 110 84.1172 110H76.6953Z" fill="black"/>
</svg>
